<?xml version="1.0" standalone="no"?>
<!DOCTYPE svg PUBLIC "-//W3C//DTD SVG 20010904//EN"
 "http://www.w3.org/TR/2001/REC-SVG-20010904/DTD/svg10.dtd">
<svg version="1.0" xmlns="http://www.w3.org/2000/svg"
 width="439.000000pt" height="439.000000pt" viewBox="0 0 439.000000 439.000000"
 preserveAspectRatio="xMidYMid meet">
<metadata>
Created by potrace 1.11, written by Peter Selinger 2001-2013
</metadata>
<g transform="translate(0.000000,439.000000) scale(0.100000,-0.100000)"
fill="#000000" stroke="none">
<path d="M2030 4284 c-74 -57 -142 -110 -150 -117 -9 -6 -60 -46 -115 -87 -55
-41 -102 -77 -105 -80 -7 -8 -303 -236 -315 -242 -6 -4 -10 29 -10 90 l0 97
-198 3 -197 2 0 -259 0 -259 -27 -18 c-16 -10 -60 -43 -99 -73 -39 -31 -86
-67 -104 -81 -18 -14 -54 -42 -80 -62 l-47 -37 0 -789 0 -789 252 -126 c353
-178 521 -230 740 -230 129 0 191 7 297 34 148 37 320 107 574 232 193 96 226
110 364 158 88 31 278 84 340 94 169 30 365 26 586 -10 l21 -3 0 711 c0 644
-2 713 -16 723 -9 7 -106 82 -216 168 -256 201 -222 175 -495 388 -129 101
-264 205 -300 233 -36 27 -67 52 -70 55 -4 5 -213 168 -364 285 -29 22 -68 52
-88 68 -19 15 -37 27 -39 26 -2 0 -65 -47 -139 -105z"/>
<path d="M3282 1658 c-133 -11 -321 -58 -493 -124 -105 -40 -136 -53 -356
-160 -95 -46 -175 -84 -178 -84 -2 0 -28 -11 -57 -24 -88 -39 -109 -47 -203
-77 -152 -50 -281 -69 -435 -65 -74 2 -146 7 -160 10 -14 3 -48 11 -77 16
-119 25 -288 88 -423 158 -158 82 -415 210 -455 227 -130 54 -355 125 -397
125 -16 0 -18 -14 -18 -150 0 -137 1 -150 18 -150 56 0 290 -91 527 -205 450
-216 668 -291 915 -312 296 -26 536 27 895 197 314 149 542 247 645 276 171
47 222 55 395 59 273 6 408 -28 714 -182 112 -57 206 -103 208 -103 2 0 2 71
1 157 l-3 158 -90 47 c-228 120 -524 200 -765 207 -36 1 -78 3 -95 4 -16 1
-68 -1 -113 -5z"/>
<path d="M3338 1245 c-2 -1 -37 -5 -78 -8 -201 -16 -498 -116 -820 -277 -107
-54 -343 -160 -365 -164 -5 -1 -48 -15 -94 -30 -46 -14 -100 -29 -120 -32 -20
-3 -39 -8 -42 -9 -39 -25 -430 -24 -470 0 -3 3 -24 7 -44 11 -91 14 -261 85
-550 229 -170 85 -353 170 -405 189 -118 43 -264 86 -296 86 l-24 0 0 -145 c0
-108 3 -147 13 -149 6 -2 52 -16 102 -31 111 -33 281 -103 446 -185 323 -160
532 -239 734 -279 222 -44 406 -44 595 0 171 39 266 76 525 199 562 269 748
321 1120 309 20 -1 166 -24 217 -34 59 -12 179 -60 298 -120 69 -35 158 -80
198 -99 l72 -36 0 158 0 157 -132 67 c-73 36 -153 72 -178 79 -25 7 -50 16
-55 20 -9 6 -56 19 -170 45 -62 14 -165 31 -245 39 -57 6 -228 13 -232 10z"/>
<path d="M30 682 l0 -147 88 -24 c97 -27 236 -80 357 -137 44 -20 82 -38 85
-39 3 -1 61 -29 130 -62 333 -160 528 -227 775 -263 71 -10 334 -7 390 5 142
29 258 62 322 91 17 8 36 14 42 14 6 0 19 4 29 10 18 10 237 114 332 157 30
14 82 38 115 53 418 197 752 247 1104 166 78 -18 178 -60 354 -147 l197 -99 0
158 0 158 -122 61 c-258 129 -530 189 -848 187 -249 -2 -499 -79 -925 -283
-104 -51 -199 -96 -210 -100 -69 -30 -97 -41 -160 -64 -191 -69 -311 -91 -480
-91 -131 0 -188 8 -329 44 -126 33 -239 82 -541 235 -319 161 -493 228 -672
260 l-33 5 0 -148z"/>
</g>
</svg>
