<svg id="Layer_1" data-name="Layer 1" xmlns="http://www.w3.org/2000/svg" viewBox="0 0 576 576"><defs><style>.cls-1{fill:none;stroke:#ea7225;stroke-miterlimit:10;stroke-width:2.18px;}.cls-2{fill:#ea7225;}</style></defs><title>SPIASquareOutlines</title><path class="cls-1" d="M156.93,51.79c19.74,0,41.27,14.41,41.27,40.33s-2.27,250.67-6.85,250.66"/><path class="cls-1" d="M165.43,51.79c19.74,0,41.27,14.41,41.27,40.33s-2.27,250.67-6.84,250.66"/><path class="cls-1" d="M266.37,51.79c-19.74,0-41.27,14.41-41.27,40.33s2.27,250.67,6.85,250.66"/><path class="cls-1" d="M257.87,51.79c-19.74,0-41.27,14.41-41.27,40.33s2.27,250.67,6.84,250.66"/><path class="cls-1" d="M210.56,51.79c19.74,0,41.27,14.41,41.27,40.33S249.56,342.79,245,342.78"/><path class="cls-1" d="M219.06,51.79c19.74,0,41.28,14.41,41.28,40.33s-2.28,250.67-6.85,250.66"/><path class="cls-1" d="M320,51.79c-19.74,0-41.27,14.41-41.27,40.33s2.27,250.67,6.84,250.66"/><path class="cls-1" d="M311.51,51.79c-19.75,0-41.28,14.41-41.28,40.33s2.27,250.67,6.85,250.66"/><path class="cls-1" d="M263.23,51.79c19.74,0,41.28,14.41,41.28,40.33s-2.28,250.67-6.85,250.66"/><path class="cls-1" d="M271.74,51.79C291.48,51.79,313,66.2,313,92.12s-2.27,250.67-6.85,250.66"/><path class="cls-1" d="M372.68,51.79c-19.74,0-41.27,14.41-41.27,40.33s2.27,250.67,6.84,250.66"/><path class="cls-1" d="M364.18,51.79c-19.74,0-41.27,14.41-41.27,40.33s2.27,250.67,6.84,250.66"/><path class="cls-1" d="M316.87,51.79c19.74,0,41.27,14.41,41.27,40.33s-2.27,250.67-6.85,250.66"/><path class="cls-1" d="M325.37,51.79c19.74,0,41.27,14.41,41.27,40.33s-2.27,250.67-6.84,250.66"/><path class="cls-1" d="M426.32,51.79C406.57,51.79,385,66.2,385,92.12s2.27,250.67,6.85,250.66"/><path class="cls-1" d="M417.81,51.79c-19.74,0-41.27,14.41-41.27,40.33s2.27,250.67,6.85,250.66"/><line class="cls-1" x1="85.05" y1="51.79" x2="497.95" y2="51.79"/><line class="cls-1" x1="85.05" y1="342.79" x2="497.95" y2="342.79"/><path class="cls-2" d="M120.54,363.11c3.65,0,6.7.44,9.16,2.56a10.15,10.15,0,0,1,3.32,7.79c0,5.12-3.22,10.19-11.5,10.19H118v15.79h-4V363.11ZM118,379.83h3.33c4.79,0,7.68-2.39,7.68-6.59,0-5.77-5.4-6.32-8-6.32h-3Z"/><path class="cls-2" d="M137.81,376.84h3.93v2.45a6.28,6.28,0,0,1,5.12-3,8.25,8.25,0,0,1,3.48.93l-1.85,3.54a4,4,0,0,0-2.29-.76,3.8,3.8,0,0,0-3.16,1.41c-.65.88-1.3,2.4-1.3,6.11v11.92h-3.93Z"/><path class="cls-2" d="M155.9,365.51a2.78,2.78,0,1,1-2.78,2.78A2.79,2.79,0,0,1,155.9,365.51Zm2,11.33v22.6h-3.92v-22.6Z"/><path class="cls-2" d="M165.27,376.84h3.92v2.61a8,8,0,0,1,6.49-3.16,7.65,7.65,0,0,1,6.48,3.11c1.14,1.69,1.31,3.54,1.31,6v14h-3.93V385.55a6.69,6.69,0,0,0-1-4.14,4.43,4.43,0,0,0-3.71-1.63,4.93,4.93,0,0,0-4,1.74c-1.53,1.8-1.64,4.47-1.64,6.1v11.82h-3.92Z"/><path class="cls-2" d="M208.58,383.16a9.11,9.11,0,0,0-7.08-3.38c-4.2,0-8,2.94-8,8.44s3.92,8.39,7.95,8.39a9.61,9.61,0,0,0,7.3-3.54v4.69a12.11,12.11,0,0,1-7.19,2.34c-7,0-12.09-5-12.09-11.82a11.68,11.68,0,0,1,12.09-12,12,12,0,0,1,7,2.18Z"/><path class="cls-2" d="M234.79,393.67a13.71,13.71,0,0,1-2.78,3.65,11,11,0,0,1-7.52,2.78c-5.45,0-11.17-3.43-11.17-11.82,0-6.76,4.14-12,11-12a10.11,10.11,0,0,1,8.55,4.14,15.17,15.17,0,0,1,2.13,8.5h-17.6c.06,4.69,3.27,7.68,7.19,7.68a6.84,6.84,0,0,0,4.63-1.63,9,9,0,0,0,2.35-3.11Zm-3.87-8a6.77,6.77,0,0,0-6.65-5.88,6.88,6.88,0,0,0-6.65,5.88Z"/><path class="cls-2" d="M245,380.43v19h-3.92v-19h-2.39v-3.59h2.39v-8.17H245v8.17h3.93v3.59Z"/><path class="cls-2" d="M251.19,388.22a12,12,0,1,1,12,11.88A11.61,11.61,0,0,1,251.19,388.22Zm4,0c0,5.56,3.92,8.39,8,8.39s7.95-2.88,7.95-8.39-3.81-8.44-7.95-8.44S255.22,382.72,255.22,388.22Z"/><path class="cls-2" d="M281.15,376.84h3.92v2.61a8,8,0,0,1,6.48-3.16A7.68,7.68,0,0,1,298,379.4c1.14,1.69,1.3,3.54,1.3,6v14h-3.92V385.55a6.63,6.63,0,0,0-1-4.14,4.43,4.43,0,0,0-3.7-1.63,4.93,4.93,0,0,0-4,1.74c-1.53,1.8-1.64,4.47-1.64,6.1v11.82h-3.92Z"/><path class="cls-2" d="M336.66,370.3a8.79,8.79,0,0,0-2.12-2.72,6.52,6.52,0,0,0-4.09-1.26c-3.59,0-6.1,2.24-6.1,5.62a3.82,3.82,0,0,0,1.36,3.16,12,12,0,0,0,3.81,2.28l3.49,1.53a17.44,17.44,0,0,1,5.61,3.43,8.76,8.76,0,0,1,2.62,6.59c0,6.7-5,11.17-11.5,11.17a10.86,10.86,0,0,1-7.9-2.94,13.17,13.17,0,0,1-3.37-6.43l3.92-1.09a8.51,8.51,0,0,0,2.18,4.63,7.44,7.44,0,0,0,12.53-5.18,5.39,5.39,0,0,0-1.8-4.24,15.86,15.86,0,0,0-4.36-2.51l-3.27-1.53a16.12,16.12,0,0,1-4.85-3,7.56,7.56,0,0,1-2.5-5.94c0-5.61,4.3-9.37,10.18-9.37a9.81,9.81,0,0,1,5.83,1.64,10.92,10.92,0,0,1,3.54,4Z"/><path class="cls-2" d="M365.37,383.16a9.11,9.11,0,0,0-7.08-3.38c-4.2,0-8,2.94-8,8.44s3.92,8.39,8,8.39a9.61,9.61,0,0,0,7.3-3.54v4.69a12.11,12.11,0,0,1-7.19,2.34c-7,0-12.09-5-12.09-11.82a11.68,11.68,0,0,1,12.09-12,12,12,0,0,1,7,2.18Z"/><path class="cls-2" d="M371.53,359.73h3.92v19.72a8,8,0,0,1,6.48-3.16,7.68,7.68,0,0,1,6.49,3.11c1.14,1.69,1.3,3.54,1.3,6v14H385.8V385.55a6.69,6.69,0,0,0-1-4.14,4.46,4.46,0,0,0-3.71-1.63,5,5,0,0,0-4,1.74c-1.52,1.8-1.63,4.47-1.63,6.1v11.82h-3.92Z"/><path class="cls-2" d="M394.9,388.22a12,12,0,1,1,12,11.88A11.61,11.61,0,0,1,394.9,388.22Zm4,0c0,5.56,3.92,8.39,7.95,8.39s8-2.88,8-8.39-3.82-8.44-8-8.44S398.93,382.72,398.93,388.22Z"/><path class="cls-2" d="M423.45,388.22a12,12,0,1,1,12,11.88A11.61,11.61,0,0,1,423.45,388.22Zm4,0c0,5.56,3.92,8.39,7.95,8.39s7.95-2.88,7.95-8.39-3.81-8.44-7.95-8.44S427.48,382.72,427.48,388.22Z"/><path class="cls-2" d="M457.33,359.73v39.71h-3.92V359.73Z"/><path class="cls-2" d="M149.77,453.6a12,12,0,1,1,12,11.88A11.61,11.61,0,0,1,149.77,453.6Zm4,0c0,5.56,3.93,8.39,8,8.39s8-2.89,8-8.39-3.81-8.44-8-8.44S153.8,448.1,153.8,453.6Z"/><path class="cls-2" d="M183.77,445.81v19h-3.93v-19h-2.17v-3.6h2.17v-9.86c0-2.07.17-4.68,2.18-6.37a7.08,7.08,0,0,1,4.52-1.47,7.62,7.62,0,0,1,2.78.49v3.81a7.22,7.22,0,0,0-2.56-.49,2.74,2.74,0,0,0-2.5,1.2,6.81,6.81,0,0,0-.49,3.27v9.42h5.55v3.6Z"/><path class="cls-2" d="M213.08,428.49c3.64,0,6.7.43,9.15,2.56a10.12,10.12,0,0,1,3.32,7.79c0,5.12-3.21,10.18-11.49,10.18h-3.54v15.8h-4V428.49Zm-2.56,16.72h3.32c4.79,0,7.68-2.4,7.68-6.59,0-5.77-5.39-6.32-8-6.32h-3Z"/><path class="cls-2" d="M234.27,455.4c0,1.58,0,3.43,1.09,4.85a5.41,5.41,0,0,0,7.95,0c1.09-1.42,1.09-3.27,1.09-4.85V442.21h3.92v13.62c0,2.78-.27,4.85-2.07,6.81a9.84,9.84,0,0,1-13.83,0c-1.8-2-2.07-4-2.07-6.81V442.21h3.92Z"/><path class="cls-2" d="M259.66,464.82h-3.93V425.11h3.93v20.26a9.71,9.71,0,0,1,7.73-3.7c7.08,0,11,5.88,11,12s-4,11.83-10.84,11.83a9.57,9.57,0,0,1-7.89-3.82Zm14.7-11.17c0-5.55-3.75-8.49-7.4-8.49s-7.52,3-7.52,8.44c0,4.63,2.94,8.39,7.57,8.39S274.36,458.18,274.36,453.65Z"/><path class="cls-2" d="M288.31,425.11v39.71h-3.92V425.11Z"/><path class="cls-2" d="M297.68,430.88a2.78,2.78,0,1,1-2.78,2.78A2.79,2.79,0,0,1,297.68,430.88Zm2,11.33v22.61h-3.92V442.21Z"/><path class="cls-2" d="M324.76,448.53a9.13,9.13,0,0,0-7.09-3.37c-4.19,0-8,2.94-8,8.44s3.92,8.39,7.95,8.39a9.66,9.66,0,0,0,7.3-3.54v4.68a12.08,12.08,0,0,1-7.19,2.35c-7,0-12.09-5-12.09-11.83a11.68,11.68,0,0,1,12.09-12,12,12,0,0,1,7,2.18Z"/><path class="cls-2" d="M360.93,442.21h3.92v22.61h-3.92v-3.16a9.54,9.54,0,0,1-7.73,3.82c-5.73,0-11-4-11-12,0-7.79,5.23-11.82,11-11.82a9.37,9.37,0,0,1,7.73,3.76Zm-14.71,11.28c0,4.85,2.73,8.5,7.41,8.5s7.52-4,7.52-8.44c0-5.83-4-8.39-7.52-8.39C349.76,445.16,346.22,448,346.22,453.49Z"/><path class="cls-2" d="M372.26,442.21h3.93v2.62a7.94,7.94,0,0,1,6.48-3.16,7.67,7.67,0,0,1,6.48,3.1c1.14,1.69,1.31,3.55,1.31,6.05v14h-3.92V450.93a6.63,6.63,0,0,0-1-4.14,4.43,4.43,0,0,0-3.7-1.63,4.94,4.94,0,0,0-4,1.74c-1.53,1.8-1.63,4.47-1.63,6.1v11.82h-3.93Z"/><path class="cls-2" d="M415.19,425.11h3.92v39.71h-3.92v-3.16a9.54,9.54,0,0,1-7.73,3.82c-5.72,0-11-4-11-12,0-7.79,5.23-11.82,11-11.82a9.35,9.35,0,0,1,7.73,3.76Zm-14.71,28.38c0,4.85,2.73,8.5,7.41,8.5s7.52-4,7.52-8.44c0-5.83-4-8.39-7.52-8.39C404,445.16,400.48,448,400.48,453.49Z"/><path class="cls-2" d="M93.77,493.86V530.2h-4V493.86Z"/><path class="cls-2" d="M102.16,507.59h3.92v2.62a8,8,0,0,1,6.48-3.16,7.67,7.67,0,0,1,6.48,3.1c1.15,1.69,1.31,3.54,1.31,6.05v14h-3.92V516.31a6.61,6.61,0,0,0-1-4.14,4.43,4.43,0,0,0-3.7-1.64,4.94,4.94,0,0,0-4,1.75c-1.52,1.79-1.63,4.46-1.63,6.1V530.2h-3.92Z"/><path class="cls-2" d="M131.79,511.19v19h-3.92v-19h-2.4v-3.6h2.4v-8.17h3.92v8.17h3.92v3.6Z"/><path class="cls-2" d="M159.47,524.42a13.56,13.56,0,0,1-2.78,3.65,10.94,10.94,0,0,1-7.52,2.78c-5.45,0-11.17-3.43-11.17-11.82,0-6.75,4.14-12,10.95-12a10.13,10.13,0,0,1,8.56,4.14,15.19,15.19,0,0,1,2.12,8.49H142c.05,4.69,3.26,7.69,7.19,7.69a6.88,6.88,0,0,0,4.63-1.64,9,9,0,0,0,2.34-3.1Zm-3.87-8a6.77,6.77,0,0,0-6.65-5.89,6.87,6.87,0,0,0-6.64,5.89Z"/><path class="cls-2" d="M165.62,507.59h3.93V510a6.28,6.28,0,0,1,5.12-3,8.25,8.25,0,0,1,3.48.92l-1.85,3.54a4,4,0,0,0-2.29-.76,3.78,3.78,0,0,0-3.16,1.42c-.65.87-1.3,2.39-1.3,6.1V530.2h-3.93Z"/><path class="cls-2" d="M181.75,507.59h3.92v2.62a8,8,0,0,1,6.49-3.16,7.68,7.68,0,0,1,6.48,3.1c1.14,1.69,1.31,3.54,1.31,6.05v14H196V516.31a6.67,6.67,0,0,0-1-4.14,4.45,4.45,0,0,0-3.71-1.64,4.91,4.91,0,0,0-4,1.75c-1.53,1.79-1.64,4.46-1.64,6.1V530.2h-3.92Z"/><path class="cls-2" d="M224.68,507.59h3.92V530.2h-3.92V527a9.54,9.54,0,0,1-7.74,3.81c-5.72,0-11-4-11-12,0-7.79,5.23-11.82,11-11.82a9.35,9.35,0,0,1,7.74,3.76ZM210,518.87c0,4.85,2.72,8.5,7.41,8.5s7.52-4,7.52-8.45c0-5.83-4-8.39-7.52-8.39C213.51,510.53,210,513.37,210,518.87Z"/><path class="cls-2" d="M240,511.19v19h-3.92v-19h-2.4v-3.6h2.4v-8.17H240v8.17H244v3.6Z"/><path class="cls-2" d="M249.63,496.26a2.78,2.78,0,1,1-2.78,2.78A2.79,2.79,0,0,1,249.63,496.26Zm2,11.33V530.2h-3.92V507.59Z"/><path class="cls-2" d="M257.59,519a12,12,0,1,1,12,11.87A11.6,11.6,0,0,1,257.59,519Zm4,0c0,5.55,3.92,8.39,7.95,8.39s7.95-2.89,7.95-8.39-3.81-8.45-7.95-8.45S261.62,513.47,261.62,519Z"/><path class="cls-2" d="M287.55,507.59h3.92v2.62a8,8,0,0,1,6.48-3.16,7.7,7.7,0,0,1,6.49,3.1c1.14,1.69,1.3,3.54,1.3,6.05v14h-3.92V516.31a6.67,6.67,0,0,0-1-4.14,4.47,4.47,0,0,0-3.71-1.64,4.91,4.91,0,0,0-4,1.75c-1.53,1.79-1.64,4.46-1.64,6.1V530.2h-3.92Z"/><path class="cls-2" d="M330.48,507.59h3.92V530.2h-3.92V527a9.54,9.54,0,0,1-7.74,3.81c-5.72,0-11-4-11-12,0-7.79,5.23-11.82,11-11.82a9.35,9.35,0,0,1,7.74,3.76Zm-14.71,11.28c0,4.85,2.72,8.5,7.41,8.5s7.51-4,7.51-8.45c0-5.83-4-8.39-7.51-8.39C319.31,510.53,315.77,513.37,315.77,518.87Z"/><path class="cls-2" d="M345.73,490.49V530.2h-3.92V490.49Z"/><path class="cls-2" d="M386.86,520H371.39L367,530.2h-4.46l16.72-38.08,16.29,38.08h-4.47Zm-1.58-3.82-6.1-14.54L373,516.14Z"/><path class="cls-2" d="M403.75,511.19v19h-3.92v-19h-2.18v-3.6h2.18v-9.86c0-2.07.16-4.68,2.18-6.37a7,7,0,0,1,4.52-1.47,7.45,7.45,0,0,1,2.78.49v3.81a7.09,7.09,0,0,0-2.56-.49,2.76,2.76,0,0,0-2.51,1.2,6.81,6.81,0,0,0-.49,3.27v9.42h5.56v3.6Z"/><path class="cls-2" d="M417.92,511.19v19H414v-19h-2.18v-3.6H414v-9.86c0-2.07.17-4.68,2.18-6.37a7,7,0,0,1,4.52-1.47,7.41,7.41,0,0,1,2.78.49v3.81a7,7,0,0,0-2.56-.49,2.74,2.74,0,0,0-2.5,1.2,6.81,6.81,0,0,0-.49,3.27v9.42h5.55v3.6Z"/><path class="cls-2" d="M444.28,507.59h3.92V530.2h-3.92V527a9.53,9.53,0,0,1-7.73,3.81c-5.72,0-11-4-11-12,0-7.79,5.23-11.82,11-11.82a9.32,9.32,0,0,1,7.73,3.76Zm-14.71,11.28c0,4.85,2.73,8.5,7.41,8.5s7.52-4,7.52-8.45c0-5.83-4-8.39-7.52-8.39C433.12,510.53,429.57,513.37,429.57,518.87Z"/><path class="cls-2" d="M457.58,496.26A2.78,2.78,0,1,1,454.8,499,2.78,2.78,0,0,1,457.58,496.26Zm2,11.33V530.2h-3.92V507.59Z"/><path class="cls-2" d="M467,507.59h3.92V510a6.28,6.28,0,0,1,5.12-3,8.29,8.29,0,0,1,3.49.92l-1.86,3.54a4,4,0,0,0-2.28-.76,3.78,3.78,0,0,0-3.16,1.42c-.66.87-1.31,2.39-1.31,6.1V530.2H467Z"/><path class="cls-2" d="M491.79,512.82a3.47,3.47,0,0,0-3.16-2.29,2.49,2.49,0,0,0-2.72,2.56c0,1.64,1.09,2.13,3.64,3.22,3.27,1.36,4.8,2.39,5.67,3.48a5.36,5.36,0,0,1,1.2,3.65c0,4.74-3.43,7.41-7.79,7.41a8.09,8.09,0,0,1-7.9-5.77l3.38-1.42c.43,1.2,1.74,3.71,4.57,3.71a3.52,3.52,0,0,0,3.71-3.6c0-2.12-1.53-2.83-3.65-3.76-2.73-1.2-4.47-2.07-5.5-3.32a4.92,4.92,0,0,1-1-3.32c0-4,2.78-6.32,6.59-6.32a6.5,6.5,0,0,1,6.21,4.08Z"/></svg>