<?xml version="1.0" encoding="utf-8"?>
<!-- Generator: Adobe Illustrator 24.2.0, SVG Export Plug-In . SVG Version: 6.00 Build 0)  -->
<svg version="1.1" id="Layer_1" xmlns="http://www.w3.org/2000/svg" xmlns:xlink="http://www.w3.org/1999/xlink" x="0px" y="0px"
	 viewBox="0 0 494.8 162.5" style="enable-background:new 0 0 494.8 162.5;" xml:space="preserve">
<g>
	<g>
		<path d="M66.4,162.1l-1.2,0c0-1,2.8-101.2,2.8-133.6c0-10.8-2.8-18.5-8.2-23c-3.8-3.1-8.1-4-11.4-4.2c6.3,2,16.3,8,16.3,26.1
			c0,25.8-2.8,133.6-2.8,134.7l-1.2,0c0-1.1,2.8-108.9,2.8-134.7c0-10.6-3.4-18.2-10.1-22.5c-5-3.2-10-3.3-10.1-3.3l-5.5-0.1
			l5.4-1.1c0.4-0.1,9.9-2,17.4,4.1c5.8,4.7,8.7,12.8,8.7,24C69.2,60.9,66.4,161.1,66.4,162.1z"/>
		<path d="M75,162.1c0-1-2.8-101.2-2.8-133.7c0-11.2,2.9-19.3,8.7-24c7.5-6.1,17-4.2,17.4-4.1l5.4,1.1l-5.5,0.1
			C97.4,1.6,78,2.2,78,27.4c0,25.8,2.8,133.6,2.8,134.7l-1.2,0c0-1.1-2.8-108.9-2.8-134.7c0-13.8,5.8-20.4,10.7-23.5
			c1.9-1.2,3.8-2,5.5-2.6c-3.3,0.2-7.6,1.1-11.3,4.1c-5.5,4.5-8.2,12.2-8.2,23c0,32.4,2.8,132.6,2.8,133.6L75,162.1z"/>
		<path d="M95.6,162.1l-1.2,0c0-1,2.8-101.2,2.8-133.6c0-10.8-2.8-18.5-8.2-23c-3.8-3.1-8.1-4-11.4-4.2c6.3,2,16.3,8,16.3,26.1
			c0,25.8-2.8,133.6-2.8,134.7l-1.2,0c0-1.1,2.8-108.9,2.8-134.7c0-10.6-3.4-18.2-10.1-22.5c-5-3.2-10-3.3-10.1-3.3l-5.5-0.1
			l5.4-1.1c0.4-0.1,9.9-2,17.4,4.1c5.8,4.7,8.7,12.8,8.7,24C98.5,60.9,95.7,161.1,95.6,162.1z"/>
		<path d="M104.3,162.1c0-1-2.8-101.2-2.8-133.7c0-11.2,2.9-19.3,8.7-24c7.5-6.1,17-4.2,17.4-4.1l5.4,1.1l-5.5,0.1
			c-0.8,0-20.2,0.7-20.2,25.8c0,25.8,2.8,133.6,2.8,134.7l-1.2,0c0-1.1-2.8-108.9-2.8-134.7c0-13.8,5.8-20.4,10.7-23.5
			c1.9-1.2,3.8-2,5.5-2.6c-3.3,0.2-7.6,1.1-11.3,4.1c-5.5,4.5-8.2,12.2-8.2,23c0,32.4,2.8,132.6,2.8,133.6L104.3,162.1z"/>
		<path d="M124.9,162.1l-1.2,0c0-1,2.8-101.2,2.8-133.6c0-10.8-2.8-18.5-8.2-23c-3.8-3.1-8.1-4-11.4-4.2c6.3,2,16.3,8,16.3,26.1
			c0,25.8-2.8,133.6-2.8,134.7l-1.2,0c0-1.1,2.8-108.9,2.8-134.7c0-10.6-3.4-18.2-10.1-22.5c-5-3.2-10-3.3-10.1-3.3l-5.5-0.1
			l5.4-1.1c0.4-0.1,9.9-2,17.4,4.1c5.8,4.7,8.7,12.8,8.7,24C127.7,60.9,124.9,161.1,124.9,162.1z"/>
		<path d="M133.5,162.1c0-1-2.8-101.2-2.8-133.7c0-11.2,2.9-19.3,8.7-24c7.5-6.1,17-4.2,17.4-4.1l5.4,1.1l-5.5,0.1
			c-0.8,0-20.2,0.7-20.2,25.8c0,25.8,2.8,133.6,2.8,134.7l-1.2,0c0-1.1-2.8-108.9-2.8-134.7c0-13.8,5.8-20.4,10.7-23.5
			c1.9-1.2,3.8-2,5.5-2.6c-3.3,0.2-7.6,1.1-11.3,4.1c-5.5,4.5-8.2,12.2-8.2,23c0,32.4,2.8,132.6,2.8,133.6L133.5,162.1z"/>
		<path d="M154.2,162.1l-1.2,0c0-1,2.8-101.2,2.8-133.6c0-10.8-2.8-18.5-8.2-23c-3.8-3.1-8.1-4-11.4-4.2c6.3,2,16.3,8,16.3,26.1
			c0,25.8-2.8,133.6-2.8,134.7l-1.2,0c0-1.1,2.8-108.9,2.8-134.7c0-10.6-3.4-18.2-10.1-22.5c-5-3.2-10-3.3-10.1-3.3l-5.5-0.1
			l5.4-1.1c0.4-0.1,9.9-2,17.4,4.1c5.8,4.7,8.7,12.8,8.7,24C157,60.9,154.2,161.1,154.2,162.1z"/>
		<path d="M162.8,162.1c0-1-2.8-101.2-2.8-133.7c0-11.2,2.9-19.3,8.7-24c7.5-6.1,17-4.2,17.4-4.1l5.4,1.1L186,1.6
			c-0.8,0-20.2,0.7-20.2,25.8c0,25.8,2.8,133.6,2.8,134.7l-1.2,0c0-1.1-2.8-108.9-2.8-134.7c0-13.8,5.8-20.4,10.7-23.5
			c1.9-1.2,3.8-2,5.5-2.6c-3.3,0.2-7.6,1.1-11.3,4.1c-5.5,4.5-8.2,12.2-8.2,23c0,32.4,2.8,132.6,2.8,133.6L162.8,162.1z"/>
		<rect y="0.3" width="227.9" height="1.2"/>
		<rect x="0.5" y="161.3" width="227.9" height="1.2"/>
	</g>
	<g>
		<path d="M233.1,25.1c2.5,0,4.6,0.3,6.2,1.7c1.8,1.6,2.3,3.8,2.3,5.3c0,3.5-2.2,6.9-7.8,6.9h-2.4v10.8h-2.7V25.1H233.1z
			 M231.4,36.5h2.3c3.3,0,5.2-1.6,5.2-4.5c0-3.9-3.7-4.3-5.5-4.3h-2V36.5z"/>
		<path d="M244.4,34.4h2.7v1.7c0.3-0.4,1.4-2,3.5-2c0.8,0,1.7,0.3,2.4,0.6l-1.3,2.4c-0.6-0.4-1.2-0.5-1.6-0.5c-1.1,0-1.7,0.4-2.2,1
			c-0.4,0.6-0.9,1.6-0.9,4.2v8.1h-2.7V34.4z"/>
		<path d="M256.1,26.7c1,0,1.9,0.9,1.9,1.9s-0.9,1.9-1.9,1.9c-1,0-1.9-0.9-1.9-1.9S255.1,26.7,256.1,26.7z M257.5,34.4v15.4h-2.7
			V34.4H257.5z"/>
		<path d="M262,34.4h2.7v1.8c0.5-0.6,1.9-2.2,4.4-2.2c1.8,0,3.5,0.7,4.4,2.1c0.8,1.2,0.9,2.4,0.9,4.1v9.5h-2.7v-9.5
			c0-0.9-0.1-2-0.7-2.8c-0.5-0.7-1.3-1.1-2.5-1.1c-0.9,0-1.9,0.3-2.7,1.2c-1,1.2-1.1,3-1.1,4.2v8.1H262V34.4z"/>
		<path d="M290.9,38.7c-1.4-1.8-3.5-2.3-4.8-2.3c-2.9,0-5.5,2-5.5,5.8c0,3.8,2.7,5.7,5.4,5.7c1.6,0,3.6-0.7,5-2.4v3.2
			c-1.7,1.2-3.5,1.6-4.9,1.6c-4.8,0-8.2-3.4-8.2-8.1c0-4.7,3.5-8.2,8.2-8.2c2.5,0,4,1,4.8,1.5V38.7z"/>
		<path d="M308.3,45.9c-0.4,0.9-1.1,1.8-1.9,2.5c-1.4,1.3-3.2,1.9-5.1,1.9c-3.7,0-7.6-2.3-7.6-8.1c0-4.6,2.8-8.2,7.5-8.2
			c3,0,4.9,1.5,5.8,2.8c1,1.4,1.5,3.8,1.4,5.8h-12c0,3.2,2.2,5.2,4.9,5.2c1.3,0,2.3-0.4,3.2-1.1c0.7-0.6,1.3-1.4,1.6-2.1L308.3,45.9
			z M305.6,40.4c-0.4-2.4-2.3-4-4.5-4c-2.3,0-4.1,1.7-4.5,4H305.6z"/>
		<path d="M314.6,36.9v13H312v-13h-1.6v-2.4h1.6v-5.6h2.7v5.6h2.7v2.4H314.6z"/>
		<path d="M318.3,42.2c0-4.7,3.5-8.1,8.2-8.1c4.7,0,8.2,3.5,8.2,8.1c0,4.7-3.5,8.1-8.2,8.1S318.3,46.9,318.3,42.2z M321.1,42.2
			c0,3.8,2.7,5.7,5.4,5.7c2.8,0,5.4-2,5.4-5.7c0-3.8-2.6-5.8-5.4-5.8S321.1,38.4,321.1,42.2z"/>
		<path d="M338.2,34.4h2.7v1.8c0.5-0.6,1.9-2.2,4.4-2.2c1.8,0,3.5,0.7,4.4,2.1c0.8,1.2,0.9,2.4,0.9,4.1v9.5h-2.7v-9.5
			c0-0.9-0.1-2-0.7-2.8c-0.5-0.7-1.3-1.1-2.5-1.1c-0.9,0-1.9,0.3-2.7,1.2c-1,1.2-1.1,3-1.1,4.2v8.1h-2.7V34.4z"/>
		<path d="M374.9,30c-0.3-0.7-0.9-1.4-1.4-1.9c-0.5-0.4-1.4-0.9-2.8-0.9c-2.5,0-4.2,1.5-4.2,3.8c0,1,0.3,1.5,0.9,2.2
			c0.7,0.7,1.7,1.2,2.6,1.6l2.4,1c1.4,0.6,2.8,1.3,3.8,2.3c1.3,1.3,1.8,2.7,1.8,4.5c0,4.6-3.4,7.6-7.8,7.6c-1.6,0-3.7-0.3-5.4-2
			c-1.2-1.2-2-2.9-2.3-4.4l2.7-0.7c0.2,1.3,0.8,2.4,1.5,3.2c1.1,1.1,2.3,1.4,3.6,1.4c3.4,0,5-2.4,5-4.9c0-1.1-0.3-2.1-1.2-2.9
			c-0.7-0.7-1.7-1.1-3-1.7l-2.2-1c-1-0.4-2.2-1-3.3-2c-1.1-1-1.7-2.2-1.7-4c0-3.8,2.9-6.4,6.9-6.4c1.5,0,2.7,0.3,4,1.1
			c1,0.7,1.9,1.7,2.4,2.7L374.9,30z"/>
		<path d="M393.9,38.7c-1.4-1.8-3.5-2.3-4.8-2.3c-2.9,0-5.5,2-5.5,5.8c0,3.8,2.7,5.7,5.4,5.7c1.6,0,3.6-0.7,5-2.4v3.2
			c-1.7,1.2-3.5,1.6-4.9,1.6c-4.8,0-8.2-3.4-8.2-8.1c0-4.7,3.5-8.2,8.2-8.2c2.5,0,4,1,4.8,1.5V38.7z"/>
		<path d="M397.6,22.8h2.7v13.4c0.5-0.6,1.9-2.2,4.4-2.2c1.8,0,3.5,0.7,4.4,2.1c0.8,1.2,0.9,2.4,0.9,4.1v9.5h-2.7v-9.5
			c0-0.9-0.1-2-0.7-2.8c-0.5-0.7-1.3-1.1-2.5-1.1c-0.9,0-1.9,0.3-2.7,1.2c-1,1.2-1.1,3-1.1,4.2v8.1h-2.7V22.8z"/>
		<path d="M413,42.2c0-4.7,3.5-8.1,8.2-8.1c4.7,0,8.2,3.5,8.2,8.1c0,4.7-3.5,8.1-8.2,8.1C416.5,50.3,413,46.9,413,42.2z M415.7,42.2
			c0,3.8,2.7,5.7,5.4,5.7c2.8,0,5.4-2,5.4-5.7c0-3.8-2.6-5.8-5.4-5.8C418.3,36.4,415.7,38.4,415.7,42.2z"/>
		<path d="M431.9,42.2c0-4.7,3.5-8.1,8.2-8.1c4.7,0,8.2,3.5,8.2,8.1c0,4.7-3.5,8.1-8.2,8.1S431.9,46.9,431.9,42.2z M434.6,42.2
			c0,3.8,2.7,5.7,5.4,5.7c2.8,0,5.4-2,5.4-5.7c0-3.8-2.6-5.8-5.4-5.8S434.6,38.4,434.6,42.2z"/>
		<path d="M454.4,22.8v27.1h-2.7V22.8H454.4z"/>
		<path d="M227,84.3c0-4.7,3.5-8.1,8.2-8.1c4.7,0,8.2,3.5,8.2,8.1c0,4.7-3.5,8.1-8.2,8.1C230.5,92.4,227,89,227,84.3z M229.8,84.3
			c0,3.8,2.7,5.7,5.4,5.7c2.8,0,5.4-2,5.4-5.7c0-3.8-2.6-5.8-5.4-5.8C232.4,78.5,229.8,80.5,229.8,84.3z"/>
		<path d="M249.6,79v13H247V79h-1.5v-2.4h1.5v-6.7c0-1.4,0.1-3.2,1.5-4.3c0.7-0.6,1.9-1,3.1-1c1,0,1.6,0.2,1.9,0.3v2.6
			c-0.6-0.2-1.2-0.3-1.7-0.3c-0.6,0-1.3,0.1-1.7,0.8c-0.3,0.6-0.3,1.4-0.3,2.2v6.4h3.8V79H249.6z"/>
		<path d="M268.5,67.2c2.5,0,4.6,0.3,6.2,1.7c1.8,1.6,2.3,3.8,2.3,5.3c0,3.5-2.2,6.9-7.8,6.9h-2.4v10.8H264V67.2H268.5z M266.8,78.6
			h2.3c3.3,0,5.2-1.6,5.2-4.5c0-3.9-3.7-4.3-5.5-4.3h-2V78.6z"/>
		<path d="M282.4,85.5c0,1.1,0,2.3,0.7,3.3c0.4,0.5,1.2,1.2,2.7,1.2c1.5,0,2.3-0.7,2.7-1.2c0.7-1,0.7-2.2,0.7-3.3v-9h2.7v9.3
			c0,1.9-0.2,3.3-1.4,4.6c-1.4,1.4-3.2,1.9-4.7,1.9c-1.5,0-3.3-0.5-4.7-1.9c-1.2-1.3-1.4-2.7-1.4-4.6v-9.3h2.7V85.5z"/>
		<path d="M299.2,91.9h-2.7V64.8h2.7v13.8c1.8-2.3,4.2-2.5,5.3-2.5c4.8,0,7.5,4,7.5,8.2c0,4.2-2.7,8.1-7.4,8.1
			c-2.5,0-4.2-1.1-5.4-2.6V91.9z M309.2,84.3c0-3.8-2.6-5.8-5.1-5.8c-2.5,0-5.1,2-5.1,5.8c0,3.2,2,5.7,5.2,5.7
			C307.3,90,309.2,87.4,309.2,84.3z"/>
		<path d="M318.1,64.8v27.1h-2.7V64.8H318.1z"/>
		<path d="M324,68.8c1,0,1.9,0.9,1.9,1.9s-0.9,1.9-1.9,1.9c-1,0-1.9-0.9-1.9-1.9S322.9,68.8,324,68.8z M325.3,76.5v15.4h-2.7V76.5
			H325.3z"/>
		<path d="M341.9,80.8c-1.4-1.8-3.5-2.3-4.8-2.3c-2.9,0-5.5,2-5.5,5.8c0,3.8,2.7,5.7,5.4,5.7c1.6,0,3.6-0.7,5-2.4v3.2
			c-1.7,1.2-3.5,1.6-4.9,1.6c-4.8,0-8.2-3.4-8.2-8.1c0-4.7,3.5-8.2,8.2-8.2c2.5,0,4,1,4.8,1.5V80.8z"/>
		<path d="M365.4,76.5h2.7v15.4h-2.7v-2.2c-0.9,1.2-2.6,2.6-5.3,2.6c-3.9,0-7.5-2.7-7.5-8.2c0-5.3,3.6-8.1,7.5-8.1
			c3,0,4.6,1.6,5.3,2.6V76.5z M355.4,84.2c0,3.3,1.9,5.8,5.1,5.8c3.3,0,5.1-2.7,5.1-5.8c0-4-2.7-5.7-5.1-5.7
			C357.8,78.5,355.4,80.4,355.4,84.2z"/>
		<path d="M372.6,76.5h2.7v1.8c0.5-0.6,1.9-2.2,4.4-2.2c1.8,0,3.5,0.7,4.4,2.1c0.8,1.2,0.9,2.4,0.9,4.1v9.5h-2.7v-9.5
			c0-0.9-0.1-2-0.7-2.8c-0.5-0.7-1.3-1.1-2.5-1.1c-0.9,0-1.9,0.3-2.7,1.2c-1,1.2-1.1,3-1.1,4.2v8.1h-2.7V76.5z"/>
		<path d="M401.3,64.8h2.7v27.1h-2.7v-2.2c-0.9,1.2-2.6,2.6-5.3,2.6c-3.9,0-7.5-2.7-7.5-8.2c0-5.3,3.6-8.1,7.5-8.1
			c3,0,4.6,1.6,5.3,2.6V64.8z M391.3,84.2c0,3.3,1.9,5.8,5.1,5.8c3.3,0,5.1-2.7,5.1-5.8c0-4-2.7-5.7-5.1-5.7
			C393.7,78.5,391.3,80.4,391.3,84.2z"/>
		<path d="M231.4,109.2V134h-2.7v-24.8H231.4z"/>
		<path d="M236.6,118.6h2.7v1.8c0.5-0.6,1.9-2.2,4.4-2.2c1.8,0,3.5,0.7,4.4,2.1c0.8,1.2,0.9,2.4,0.9,4.1v9.5h-2.7v-9.5
			c0-0.9-0.1-2-0.7-2.8c-0.5-0.7-1.3-1.1-2.5-1.1c-0.9,0-1.9,0.3-2.7,1.2c-1,1.2-1.1,3-1.1,4.2v8.1h-2.7V118.6z"/>
		<path d="M256.2,121.1v13h-2.7v-13h-1.6v-2.5h1.6V113h2.7v5.6h2.7v2.5H256.2z"/>
		<path d="M274.5,130.1c-0.4,0.9-1.1,1.8-1.9,2.5c-1.4,1.3-3.2,1.9-5.1,1.9c-3.7,0-7.6-2.3-7.6-8.1c0-4.6,2.8-8.2,7.5-8.2
			c3,0,4.9,1.5,5.8,2.8c1,1.4,1.5,3.8,1.4,5.8h-12c0,3.2,2.2,5.2,4.9,5.2c1.3,0,2.3-0.4,3.2-1.1c0.7-0.6,1.3-1.4,1.6-2.1
			L274.5,130.1z M271.9,124.6c-0.4-2.4-2.3-4-4.5-4c-2.3,0-4.1,1.7-4.5,4H271.9z"/>
		<path d="M278.2,118.6h2.7v1.7c0.3-0.4,1.4-2,3.5-2c0.8,0,1.7,0.3,2.4,0.6l-1.3,2.4c-0.6-0.4-1.2-0.5-1.6-0.5c-1.1,0-1.7,0.4-2.2,1
			c-0.4,0.6-0.9,1.6-0.9,4.2v8.1h-2.7V118.6z"/>
		<path d="M288.6,118.6h2.7v1.8c0.5-0.6,1.9-2.2,4.4-2.2c1.8,0,3.5,0.7,4.4,2.1c0.8,1.2,0.9,2.4,0.9,4.1v9.5h-2.7v-9.5
			c0-0.9-0.1-2-0.7-2.8c-0.5-0.7-1.3-1.1-2.5-1.1c-0.9,0-1.9,0.3-2.7,1.2c-1,1.2-1.1,3-1.1,4.2v8.1h-2.7V118.6z"/>
		<path d="M317.3,118.6h2.7V134h-2.7v-2.2c-0.9,1.2-2.6,2.6-5.3,2.6c-3.9,0-7.5-2.7-7.5-8.2c0-5.3,3.6-8.1,7.5-8.1
			c3,0,4.6,1.6,5.3,2.6V118.6z M307.3,126.3c0,3.3,1.9,5.8,5.1,5.8c3.3,0,5.1-2.7,5.1-5.8c0-4-2.7-5.7-5.1-5.7
			C309.7,120.6,307.3,122.5,307.3,126.3z"/>
		<path d="M327.2,121.1v13h-2.7v-13h-1.6v-2.5h1.6V113h2.7v5.6h2.7v2.5H327.2z"/>
		<path d="M333.2,110.9c1,0,1.9,0.9,1.9,1.9s-0.9,1.9-1.9,1.9c-1,0-1.9-0.9-1.9-1.9S332.2,110.9,333.2,110.9z M334.5,118.6V134h-2.7
			v-15.4H334.5z"/>
		<path d="M338.1,126.4c0-4.7,3.5-8.1,8.2-8.1c4.7,0,8.2,3.5,8.2,8.1c0,4.7-3.5,8.1-8.2,8.1C341.6,134.5,338.1,131,338.1,126.4z
			 M340.8,126.4c0,3.8,2.7,5.7,5.4,5.7c2.8,0,5.4-2,5.4-5.7c0-3.8-2.6-5.8-5.4-5.8S340.8,122.6,340.8,126.4z"/>
		<path d="M357.9,118.6h2.7v1.8c0.5-0.6,1.9-2.2,4.4-2.2c1.8,0,3.5,0.7,4.4,2.1c0.8,1.2,0.9,2.4,0.9,4.1v9.5h-2.7v-9.5
			c0-0.9-0.1-2-0.7-2.8c-0.5-0.7-1.3-1.1-2.5-1.1c-0.9,0-1.9,0.3-2.7,1.2c-1,1.2-1.1,3-1.1,4.2v8.1h-2.7V118.6z"/>
		<path d="M386.7,118.6h2.7V134h-2.7v-2.2c-0.9,1.2-2.6,2.6-5.3,2.6c-3.9,0-7.5-2.7-7.5-8.2c0-5.3,3.6-8.1,7.5-8.1
			c3,0,4.6,1.6,5.3,2.6V118.6z M376.6,126.3c0,3.3,1.9,5.8,5.1,5.8c3.3,0,5.1-2.7,5.1-5.8c0-4-2.7-5.7-5.1-5.7
			C379,120.6,376.6,122.5,376.6,126.3z"/>
		<path d="M396.5,106.9V134h-2.7v-27.1H396.5z"/>
		<path d="M423.4,127h-10.5l-3,7h-3l11.4-26l11.1,26h-3L423.4,127z M422.4,124.4l-4.2-9.9l-4.2,9.9H422.4z"/>
		<path d="M434.4,121.1v13h-2.7v-13h-1.5v-2.5h1.5v-6.7c0-1.4,0.1-3.2,1.5-4.3c0.7-0.6,1.9-1,3.1-1c1,0,1.6,0.2,1.9,0.3v2.6
			c-0.6-0.2-1.2-0.3-1.7-0.3c-0.6,0-1.3,0.1-1.7,0.8c-0.3,0.6-0.3,1.4-0.3,2.2v6.4h3.8v2.5H434.4z"/>
		<path d="M443.5,121.1v13h-2.7v-13h-1.5v-2.5h1.5v-6.7c0-1.4,0.1-3.2,1.5-4.3c0.7-0.6,1.9-1,3.1-1c1,0,1.6,0.2,1.9,0.3v2.6
			c-0.6-0.2-1.2-0.3-1.7-0.3c-0.6,0-1.3,0.1-1.7,0.8c-0.3,0.6-0.3,1.4-0.3,2.2v6.4h3.8v2.5H443.5z"/>
		<path d="M460.9,118.6h2.7V134h-2.7v-2.2c-0.9,1.2-2.6,2.6-5.3,2.6c-3.9,0-7.5-2.7-7.5-8.2c0-5.3,3.6-8.1,7.5-8.1
			c3,0,4.6,1.6,5.3,2.6V118.6z M450.9,126.3c0,3.3,1.9,5.8,5.1,5.8c3.3,0,5.1-2.7,5.1-5.8c0-4-2.7-5.7-5.1-5.7
			C453.3,120.6,450.9,122.5,450.9,126.3z"/>
		<path d="M469.4,110.9c1,0,1.9,0.9,1.9,1.9s-0.9,1.9-1.9,1.9c-1,0-1.9-0.9-1.9-1.9S468.4,110.9,469.4,110.9z M470.8,118.6V134h-2.7
			v-15.4H470.8z"/>
		<path d="M475.2,118.6h2.7v1.7c0.3-0.4,1.4-2,3.5-2c0.8,0,1.7,0.3,2.4,0.6l-1.3,2.4c-0.6-0.4-1.2-0.5-1.6-0.5c-1.1,0-1.7,0.4-2.2,1
			c-0.4,0.6-0.9,1.6-0.9,4.2v8.1h-2.7V118.6z"/>
		<path d="M491.6,122.2c-0.4-0.9-1.2-1.6-2.2-1.6c-1,0-1.9,0.6-1.9,1.7c0,1.1,0.7,1.4,2.5,2.2c2.2,0.9,3.3,1.6,3.9,2.4
			c0.7,0.8,0.8,1.6,0.8,2.5c0,3.2-2.3,5.1-5.3,5.1c-0.6,0-4.1-0.1-5.4-3.9l2.3-1c0.3,0.8,1.2,2.5,3.1,2.5c1.7,0,2.5-1.3,2.5-2.4
			c0-1.4-1-1.9-2.5-2.6c-1.9-0.8-3-1.4-3.8-2.3c-0.6-0.7-0.7-1.5-0.7-2.3c0-2.7,1.9-4.3,4.5-4.3c0.8,0,3,0.1,4.2,2.8L491.6,122.2z"
			/>
	</g>
</g>
<g>
</g>
<g>
</g>
<g>
</g>
<g>
</g>
<g>
</g>
<g>
</g>
</svg>
